# xmcd CD database file
#
# Track frame offsets:
#	150
#	21615
#	49568
#	71765
#	85517
#	104732
#	127803
#	146416
#	160817
#	180993
#	201591
#
# Disc length: 3167 seconds
#
# Revision: 0
# Processed by: cddbd v1.5.1PL0 Copyright (c) Steve Scherf et al.
# Submitted via: CDex 1.51
#
DISCID=960c5d0b
DTITLE=Various Artist - 2002 Kyoto Hard Rock Parfait
DYEAR=2002
DGENRE=Hard Rock
TTITLE0=フレイマーブルリキッド-Door
TTITLE1=PAPA'S GOT A BRABD NEW SACK-神様
TTITLE2=BARAKA-Butterfly
TTITLE3=プロレタリア-Revenge
TTITLE4=HEARTLOSE-Mr. Miracleman
TTITLE5=SHRIEKER-Out Sider
TTITLE6=EBONY EYES-I･BA･RA
TTITLE7=FROGGY STYLE-ぶっこんでやれ！（とりあえず GO！GO！)
TTITLE8=NIX-I Can't Take It
TTITLE9=D.D.Dee-Ace Of Spade
TTITLE10=BLOODLINE-Round and Round
EXTD=YEAR: 2002
EXTT0=
EXTT1=
EXTT2=
EXTT3=
EXTT4=
EXTT5=
EXTT6=
EXTT7=
EXTT8=
EXTT9=
EXTT10=
PLAYORDER=
